<svg width="24" height="24" viewBox="0 0 24 24" fill="none" xmlns="http://www.w3.org/2000/svg">
<g clip-path="url(#clip0_2275_35748)">
<mask id="mask0_2275_35748" style="mask-type:alpha" maskUnits="userSpaceOnUse" x="0" y="0" width="24" height="24">
<rect width="24" height="24" fill="#D9D9D9"/>
</mask>
<g mask="url(#mask0_2275_35748)">
<path d="M22.0005 8.86926V15.117C22.0005 16.5458 20.8281 17.5676 19.5499 17.5676C19.1844 17.5676 18.8107 17.4847 18.4535 17.3037C18.412 17.283 18.3699 17.2602 18.3291 17.236L12.9187 14.1125C11.2875 13.1708 11.2875 10.8148 12.9187 9.87313L18.3291 6.7496C18.3699 6.72611 18.412 6.70331 18.4535 6.68189C18.8113 6.50019 19.1837 6.41797 19.5499 6.41797C20.8281 6.41728 22.0005 7.4398 22.0005 8.86926Z" fill="url(#paint0_linear_2275_35748)"/>
<path d="M17.2998 19.0178C17.5534 19.1643 17.8201 19.2852 18.0944 19.3791C17.7379 19.8869 17.1479 20.2186 16.4804 20.2186H3.97319C2.88296 20.2186 2 19.3349 2 18.2454V5.73813C2 4.6479 2.88365 3.76562 3.97319 3.76562H16.4804C17.1479 3.76562 17.7379 4.09725 18.0944 4.60437C17.8201 4.69833 17.5534 4.81993 17.2998 4.96571L11.8895 8.08924C11.1778 8.50101 10.594 9.09242 10.2009 9.80127C9.83197 10.4673 9.63645 11.2238 9.63645 11.9914C9.63645 12.7583 9.83197 13.5155 10.2009 14.1809C10.5933 14.8897 11.1778 15.4818 11.8895 15.8929L17.2998 19.0178Z" fill="url(#paint1_linear_2275_35748)"/>
</g>
</g>
<defs>
<linearGradient id="paint0_linear_2275_35748" x1="11.6953" y1="6.41797" x2="22.1431" y2="16.7458" gradientUnits="userSpaceOnUse">
<stop offset="0.516615" stop-color="#00AACC"/>
<stop offset="1" stop-color="#00CCC0"/>
</linearGradient>
<linearGradient id="paint1_linear_2275_35748" x1="2" y1="3.76563" x2="17.4025" y2="19.8799" gradientUnits="userSpaceOnUse">
<stop offset="0.516615" stop-color="#00AACC"/>
<stop offset="1" stop-color="#00CCC0"/>
</linearGradient>
<clipPath id="clip0_2275_35748">
<rect width="24" height="24" fill="white"/>
</clipPath>
</defs>
</svg>
