<svg width="16" height="20" viewBox="0 0 16 20" fill="none" xmlns="http://www.w3.org/2000/svg">
<path fill-rule="evenodd" clip-rule="evenodd" d="M1.18476 0C0.696012 0 0.299805 0.396207 0.299805 0.884954V6.01769C0.299805 6.50644 0.696013 6.90264 1.18476 6.90264H8.79537V19.115C8.79537 19.6038 9.19157 20 9.68032 20H14.8131C15.3018 20 15.698 19.6038 15.698 19.115V6.01769V3.53982C15.698 3.41763 15.6918 3.29689 15.6797 3.17789C15.5143 1.54892 14.2444 0.246472 12.6306 0.0312511C12.4954 0.0132162 12.3577 0.00281574 12.2181 0.000497433C12.2082 0.00033184 12.1982 0.000207481 12.1882 0.000124521C12.1782 4.15615e-05 12.1682 0 12.1582 0H9.68032H1.18476Z" fill="url(#paint0_linear_4163_7345)"/>
<path d="M0.299805 9.55732C0.299805 9.06857 0.696012 8.67236 1.18476 8.67236H6.3175C6.80624 8.67236 7.20245 9.06857 7.20245 9.55732V19.1148C7.20245 19.6036 6.80624 19.9998 6.3175 19.9998H3.83962C1.88463 19.9998 0.299805 18.4149 0.299805 16.46V9.55732Z" fill="url(#paint1_linear_4163_7345)"/>
<defs>
<linearGradient id="paint0_linear_4163_7345" x1="1.06971" y1="4.81605e-07" x2="18.5083" y2="15.4324" gradientUnits="userSpaceOnUse">
<stop stop-color="#6F08D7"/>
<stop offset="1" stop-color="#C446FF"/>
</linearGradient>
<linearGradient id="paint1_linear_4163_7345" x1="0.644937" y1="8.67236" x2="9.99643" y2="15.2224" gradientUnits="userSpaceOnUse">
<stop stop-color="#6F08D7"/>
<stop offset="1" stop-color="#C446FF"/>
</linearGradient>
</defs>
</svg>
