<svg width="24" height="24" viewBox="0 0 24 24" fill="none" xmlns="http://www.w3.org/2000/svg">
<path d="M18.9599 13.8923V19.8573C18.9599 20.2893 18.6156 20.6395 18.1904 20.6395H8.94501C6.61118 20.6395 4.71973 18.7161 4.71973 16.3443V13.8923H5.97921C8.68553 13.8923 11.0313 12.3339 12.151 10.0752C13.2402 12.3339 15.5227 13.8923 18.1554 13.8923H18.9599Z" fill="url(#paint0_linear_1191_6986)"/>
<path d="M11.4402 4.45298V7.07752C11.4402 7.17269 11.4379 7.26637 11.4327 7.36005C11.2833 10.2084 8.89442 12.4797 5.97918 12.4797H3.26468C2.9487 12.4797 2.63048 12.3467 2.38959 12.1139L2.36952 12.0954C2.13085 11.882 2 11.5742 2 11.2284V4.45075C2 4.15336 2.14572 3.81283 2.37026 3.58533L2.38885 3.56599C2.59851 3.337 2.92565 3.2002 3.26468 3.2002H10.1792C10.3792 3.2002 10.7561 3.24629 11.0401 3.55559L11.0825 3.59722C11.313 3.80912 11.4402 4.11321 11.4402 4.45298Z" fill="url(#paint1_linear_1191_6986)"/>
<path d="M21.9996 4.45075V11.2284C21.9996 11.5742 21.8732 11.882 21.6427 12.0946L21.6226 12.1139C21.5133 12.224 21.2107 12.4797 20.778 12.4797H18.155C15.3394 12.4797 13.0308 10.2084 12.8866 7.36005C12.8821 7.26637 12.8799 7.17269 12.8799 7.07752V4.45298C12.8799 4.11395 13.0018 3.80986 13.2241 3.59796L13.2658 3.55484C13.5386 3.24629 13.9037 3.2002 14.0977 3.2002H20.778C21.1052 3.2002 21.4219 3.337 21.6241 3.56599L21.642 3.58533C21.8591 3.81358 21.9996 4.15336 21.9996 4.45075Z" fill="url(#paint2_linear_1191_6986)"/>
<defs>
<linearGradient id="paint0_linear_1191_6986" x1="4.71973" y1="10.0752" x2="13.9924" y2="23.4432" gradientUnits="userSpaceOnUse">
<stop offset="0.055" stop-color="#FF6A00"/>
<stop offset="1" stop-color="#E92583"/>
</linearGradient>
<linearGradient id="paint1_linear_1191_6986" x1="2" y1="3.2002" x2="10.6651" y2="12.6281" gradientUnits="userSpaceOnUse">
<stop offset="0.055" stop-color="#FF6A00"/>
<stop offset="1" stop-color="#E92583"/>
</linearGradient>
<linearGradient id="paint2_linear_1191_6986" x1="12.8799" y1="3.2002" x2="21.5651" y2="12.3292" gradientUnits="userSpaceOnUse">
<stop offset="0.055" stop-color="#FF6A00"/>
<stop offset="1" stop-color="#E92583"/>
</linearGradient>
</defs>
</svg>
